<svg xmlns="http://www.w3.org/2000/svg" xmlns:xlink="http://www.w3.org/1999/xlink" viewBox="0 0 110.66 113.05" xmlns:v="https://vecta.io/nano"><g fill="#232253"><use xlink:href="#B"/><use xlink:href="#C"/><path d="M22.74,62.32a9.76,9.76,0,0,1-6.21-1.86C12.87,57.61,13,52.62,13,50.28c0-1.53.41-10.38,7.75-14.58A15.91,15.91,0,0,1,31.34,34a11,11,0,0,1-1.21-5.53,8.35,8.35,0,0,1,2-5.59c2.37-2.43,6.11-2.1,8.61-1.89a17.73,17.73,0,0,1,5.45,1.38,16.29,16.29,0,0,1,4-5.38,15.48,15.48,0,0,1,23.13,2.65,17.89,17.89,0,0,1,7.72-3c1-.14,7.94-1,10.91,2.76a6.91,6.91,0,0,1,1.16,2.32,7.38,7.38,0,0,1-.77,5.32,13.11,13.11,0,0,1,7-.25c7.13,1.8,9.67,9.45,10.07,10.67.84,2.52,2.67,8-.64,11.74-3.11,3.46-8.44,2.73-9.09,2.63A42.58,42.58,0,0,0,82,41.59c-17.61-5-33.69,3.85-42.54,8.69A83.53,83.53,0,0,0,22.74,62.32Z"/><path d="M80.62 77a16.29 16.29 0 0 1-5.74 13.72c-5.38 4.47-12.56 4.37-17.8 1.82A17.33 17.33 0 0 1 47.44 78l21.92-3 38-5.79v-.1a43.16 43.16 0 1 0-.15 3.94zm-4.56-24.33c1.91 0 3.49 2.5 3.52 5.63s-1.5 5.7-3.41 5.7-3.49-2.5-3.51-5.63 1.49-5.69 3.4-5.7zm-30.43 9.09c0-3.13 1.5-5.68 3.41-5.7s3.48 2.51 3.51 5.63-1.49 5.68-3.4 5.7-3.49-2.5-3.52-5.63z"/><use xlink:href="#D"/><path d="M22.24 61.82A9.76 9.76 0 0 1 16 60c-3.66-2.85-3.56-7.84-3.52-10.18 0-1.53.41-10.38 7.75-14.58a15.91 15.91 0 0 1 10.58-1.68A11 11 0 0 1 29.63 28a8.35 8.35 0 0 1 2-5.59c2.37-2.41 6.1-2.11 8.6-1.9a17.73 17.73 0 0 1 5.45 1.38 16.29 16.29 0 0 1 4-5.38 15.48 15.48 0 0 1 23.13 2.65 17.89 17.89 0 0 1 7.72-3c1-.14 7.94-1 10.91 2.76a6.91 6.91 0 0 1 1.16 2.32 7.38 7.38 0 0 1-.77 5.32 13.11 13.11 0 0 1 7-.25C106 28.13 108.5 35.78 108.9 37c.84 2.52 2.67 8-.64 11.74-3.11 3.46-8.44 2.73-9.09 2.63a42.58 42.58 0 0 0-17.71-10.28c-17.61-5-33.69 3.85-42.54 8.69a83.53 83.53 0 0 0-16.68 12.04z"/><use xlink:href="#B" x="-1" y="-1"/><use xlink:href="#C" x="-1" y="-1"/><path d="M21.74,61.32a9.76,9.76,0,0,1-6.21-1.86C11.87,56.61,12,51.62,12,49.28c0-1.53.41-10.38,7.75-14.58A15.91,15.91,0,0,1,30.34,33a11,11,0,0,1-1.21-5.53,8.35,8.35,0,0,1,2-5.59c2.37-2.43,6.11-2.1,8.61-1.89a17.73,17.73,0,0,1,5.45,1.38,16.29,16.29,0,0,1,4-5.38,15.48,15.48,0,0,1,23.13,2.65,17.89,17.89,0,0,1,7.72-3c1-.14,7.94-1,10.91,2.76a6.91,6.91,0,0,1,1.16,2.32,7.38,7.38,0,0,1-.77,5.32,13.11,13.11,0,0,1,7-.25c7.13,1.8,9.67,9.45,10.07,10.67.84,2.52,2.67,8-.64,11.74-3.11,3.46-8.44,2.73-9.09,2.63A42.58,42.58,0,0,0,81,40.59c-17.61-5-33.69,3.85-42.54,8.69A83.53,83.53,0,0,0,21.74,61.32Z"/><path d="M79.62 76a16.29 16.29 0 0 1-5.74 13.72c-5.38 4.47-12.56 4.37-17.8 1.82A17.33 17.33 0 0 1 46.44 77l21.92-3 38-5.79v-.1a43.16 43.16 0 1 0-.15 3.94zm-4.56-24.33c1.91 0 3.49 2.5 3.52 5.63s-1.5 5.7-3.41 5.7-3.49-2.5-3.51-5.63 1.49-5.69 3.4-5.7zm-30.43 9.09c0-3.13 1.5-5.68 3.41-5.7s3.48 2.51 3.51 5.63-1.49 5.68-3.4 5.7-3.49-2.5-3.52-5.63z"/><use xlink:href="#D" x="-1" y="-1"/><path d="M21.24 60.82A9.76 9.76 0 0 1 15 59c-3.66-2.85-3.56-7.84-3.52-10.18 0-1.53.41-10.38 7.75-14.58a15.91 15.91 0 0 1 10.58-1.68A11 11 0 0 1 28.63 27a8.35 8.35 0 0 1 2-5.59c2.37-2.41 6.1-2.11 8.6-1.9a17.73 17.73 0 0 1 5.45 1.38 16.29 16.29 0 0 1 4-5.38 15.48 15.48 0 0 1 23.13 2.65 17.89 17.89 0 0 1 7.72-3c1-.14 7.94-1 10.91 2.76a6.91 6.91 0 0 1 1.16 2.32 7.38 7.38 0 0 1-.77 5.32 13.11 13.11 0 0 1 7-.25C105 27.13 107.5 34.78 107.9 36c.84 2.52 2.67 8-.64 11.74-3.11 3.46-8.44 2.73-9.09 2.63a42.58 42.58 0 0 0-17.71-10.28c-17.61-5-33.69 3.85-42.54 8.69a83.53 83.53 0 0 0-16.68 12.04z"/><use xlink:href="#B" x="-2" y="-2"/><use xlink:href="#C" x="-2" y="-2"/><path d="M20.74,60.32a9.76,9.76,0,0,1-6.21-1.86C10.87,55.61,11,50.62,11,48.28c0-1.53.41-10.38,7.75-14.58A15.91,15.91,0,0,1,29.34,32a11,11,0,0,1-1.21-5.53,8.35,8.35,0,0,1,2-5.59c2.37-2.43,6.11-2.1,8.61-1.89a17.73,17.73,0,0,1,5.45,1.38,16.29,16.29,0,0,1,4-5.38,15.48,15.48,0,0,1,23.13,2.65,17.89,17.89,0,0,1,7.72-3c1-.14,7.94-1,10.91,2.76a6.91,6.91,0,0,1,1.16,2.32,7.38,7.38,0,0,1-.77,5.32,13.11,13.11,0,0,1,7-.25c7.13,1.8,9.67,9.45,10.07,10.67.84,2.52,2.67,8-.64,11.74-3.11,3.46-8.44,2.73-9.09,2.63A42.58,42.58,0,0,0,80,39.59c-17.61-5-33.69,3.85-42.54,8.69A83.53,83.53,0,0,0,20.74,60.32Z"/><path d="M78.62 75a16.29 16.29 0 0 1-5.74 13.72c-5.38 4.47-12.56 4.37-17.8 1.82A17.33 17.33 0 0 1 45.44 76l21.92-3 38-5.79v-.1a43.16 43.16 0 1 0-.15 3.94zm-4.56-24.33c1.91 0 3.49 2.5 3.52 5.63s-1.5 5.7-3.41 5.7-3.49-2.5-3.51-5.63 1.49-5.69 3.4-5.7zm-30.43 9.09c0-3.13 1.5-5.68 3.41-5.7s3.48 2.51 3.51 5.63-1.49 5.68-3.4 5.7-3.49-2.5-3.52-5.63z"/><use xlink:href="#D" x="-2" y="-2"/><path d="M20.24 59.82A9.76 9.76 0 0 1 14 58c-3.66-2.85-3.56-7.84-3.52-10.18 0-1.53.41-10.38 7.75-14.58a15.91 15.91 0 0 1 10.58-1.68A11 11 0 0 1 27.63 26a8.35 8.35 0 0 1 2-5.59c2.37-2.41 6.1-2.11 8.6-1.9a17.73 17.73 0 0 1 5.45 1.38 16.29 16.29 0 0 1 4-5.38 15.48 15.48 0 0 1 23.13 2.65 17.89 17.89 0 0 1 7.72-3c1-.14 7.94-1 10.91 2.76a6.91 6.91 0 0 1 1.16 2.32 7.38 7.38 0 0 1-.77 5.32 13.11 13.11 0 0 1 7-.25C104 26.13 106.5 33.78 106.9 35c.84 2.52 2.67 8-.64 11.74-3.11 3.46-8.44 2.73-9.09 2.63a42.58 42.58 0 0 0-17.71-10.28c-17.61-5-33.69 3.85-42.54 8.69a83.53 83.53 0 0 0-16.68 12.04z"/><use xlink:href="#B" x="-3" y="-3"/><use xlink:href="#C" x="-3" y="-3"/><path d="M19.74,59.32a9.76,9.76,0,0,1-6.21-1.86C9.87,54.61,10,49.62,10,47.28c0-1.53.41-10.38,7.75-14.58A15.91,15.91,0,0,1,28.34,31a11,11,0,0,1-1.21-5.53,8.35,8.35,0,0,1,2-5.59c2.37-2.43,6.11-2.1,8.61-1.89a17.73,17.73,0,0,1,5.45,1.38,16.29,16.29,0,0,1,4-5.38,15.48,15.48,0,0,1,23.13,2.65,17.89,17.89,0,0,1,7.72-3c1-.14,7.94-1,10.91,2.76a6.91,6.91,0,0,1,1.16,2.32,7.38,7.38,0,0,1-.77,5.32,13.11,13.11,0,0,1,7-.25c7.13,1.8,9.67,9.45,10.07,10.67.84,2.52,2.67,8-.64,11.74-3.11,3.46-8.44,2.73-9.09,2.63A42.58,42.58,0,0,0,79,38.59c-17.61-5-33.69,3.85-42.54,8.69A83.53,83.53,0,0,0,19.74,59.32Z"/><path d="M77.62 74a16.29 16.29 0 0 1-5.74 13.72c-5.38 4.47-12.56 4.37-17.8 1.82A17.33 17.33 0 0 1 44.44 75l21.92-3 38-5.79v-.1a43.16 43.16 0 1 0-.15 3.94zm-4.56-24.33c1.91 0 3.49 2.5 3.52 5.63s-1.5 5.7-3.41 5.7-3.49-2.5-3.51-5.63 1.49-5.69 3.4-5.7zm-30.43 9.09c0-3.13 1.5-5.68 3.41-5.7s3.48 2.51 3.51 5.63-1.49 5.68-3.4 5.7-3.49-2.5-3.52-5.63z"/><use xlink:href="#D" x="-3" y="-3"/><path d="M19.24 58.82A9.76 9.76 0 0 1 13 57c-3.66-2.85-3.56-7.84-3.52-10.18 0-1.53.41-10.38 7.75-14.58a15.91 15.91 0 0 1 10.58-1.68A11 11 0 0 1 26.63 25a8.35 8.35 0 0 1 2-5.59c2.37-2.41 6.1-2.11 8.6-1.9a17.73 17.73 0 0 1 5.45 1.38 16.29 16.29 0 0 1 4-5.38 15.48 15.48 0 0 1 23.13 2.65 17.89 17.89 0 0 1 7.72-3c1-.14 7.94-1 10.91 2.76a6.91 6.91 0 0 1 1.16 2.32 7.38 7.38 0 0 1-.77 5.32 13.11 13.11 0 0 1 7-.25C103 25.13 105.5 32.78 105.9 34c.84 2.52 2.67 8-.64 11.74-3.11 3.46-8.44 2.73-9.09 2.63a42.58 42.58 0 0 0-17.71-10.28c-17.61-5-33.69 3.85-42.54 8.69a83.53 83.53 0 0 0-16.68 12.04z"/><use xlink:href="#B" x="-4" y="-4"/><use xlink:href="#C" x="-4" y="-4"/><path d="M18.74,58.32a9.76,9.76,0,0,1-6.21-1.86C8.87,53.61,9,48.62,9,46.28c0-1.53.41-10.38,7.75-14.58A15.91,15.91,0,0,1,27.34,30a11,11,0,0,1-1.21-5.53,8.35,8.35,0,0,1,2-5.59c2.37-2.43,6.11-2.1,8.61-1.89a17.73,17.73,0,0,1,5.45,1.38,16.29,16.29,0,0,1,4-5.38,15.48,15.48,0,0,1,23.13,2.65,17.89,17.89,0,0,1,7.72-3c1-.14,7.94-1,10.91,2.76a6.91,6.91,0,0,1,1.16,2.32,7.38,7.38,0,0,1-.77,5.32,13.11,13.11,0,0,1,7-.25c7.13,1.8,9.67,9.45,10.07,10.67.84,2.52,2.67,8-.64,11.74-3.11,3.46-8.44,2.73-9.09,2.63A42.58,42.58,0,0,0,78,37.59c-17.61-5-33.69,3.85-42.54,8.69A83.53,83.53,0,0,0,18.74,58.32Z"/><path d="M76.62 73a16.29 16.29 0 0 1-5.74 13.72c-5.38 4.47-12.56 4.37-17.8 1.82A17.33 17.33 0 0 1 43.44 74l21.92-3 38-5.79v-.1a43.16 43.16 0 1 0-.15 3.94zm-4.56-24.33c1.91 0 3.49 2.5 3.52 5.63s-1.5 5.7-3.41 5.7-3.49-2.5-3.51-5.63 1.49-5.69 3.4-5.7zm-30.43 9.09c0-3.13 1.5-5.68 3.41-5.7s3.48 2.51 3.51 5.63-1.49 5.68-3.4 5.7-3.49-2.5-3.52-5.63z"/><use xlink:href="#D" x="-4" y="-4"/><path d="M18.24 57.82A9.76 9.76 0 0 1 12 56c-3.66-2.85-3.56-7.84-3.52-10.18 0-1.53.41-10.38 7.75-14.58a15.91 15.91 0 0 1 10.58-1.68A11 11 0 0 1 25.63 24a8.35 8.35 0 0 1 2-5.59c2.37-2.41 6.1-2.11 8.6-1.9a17.73 17.73 0 0 1 5.45 1.38 16.29 16.29 0 0 1 4-5.38 15.48 15.48 0 0 1 23.13 2.65 17.89 17.89 0 0 1 7.72-3c1-.14 7.94-1 10.91 2.76a6.91 6.91 0 0 1 1.16 2.32 7.38 7.38 0 0 1-.77 5.32 13.11 13.11 0 0 1 7-.25C102 24.13 104.5 31.78 104.9 33c.84 2.52 2.67 8-.64 11.74-3.11 3.46-8.44 2.73-9.09 2.63a42.58 42.58 0 0 0-17.71-10.28c-17.61-5-33.69 3.85-42.54 8.69a83.53 83.53 0 0 0-16.68 12.04z"/><use xlink:href="#B" x="-5" y="-5"/><use xlink:href="#C" x="-5" y="-5"/><path d="M17.74,57.32a9.76,9.76,0,0,1-6.21-1.86C7.87,52.61,8,47.62,8,45.28c0-1.53.41-10.38,7.75-14.58A15.91,15.91,0,0,1,26.34,29a11,11,0,0,1-1.21-5.53,8.35,8.35,0,0,1,2-5.59c2.37-2.43,6.11-2.1,8.61-1.89a17.73,17.73,0,0,1,5.45,1.38,16.29,16.29,0,0,1,4-5.38,15.48,15.48,0,0,1,23.13,2.65,17.89,17.89,0,0,1,7.72-3c1-.14,7.94-1,10.91,2.76a6.91,6.91,0,0,1,1.16,2.32,7.38,7.38,0,0,1-.77,5.32,13.11,13.11,0,0,1,7-.25c7.13,1.8,9.67,9.45,10.07,10.67.84,2.52,2.67,8-.64,11.74-3.11,3.46-8.44,2.73-9.09,2.63A42.58,42.58,0,0,0,77,36.59c-17.61-5-33.69,3.85-42.54,8.69A83.53,83.53,0,0,0,17.74,57.32Z"/><path d="M75.62 72a16.29 16.29 0 0 1-5.74 13.72c-5.38 4.47-12.56 4.37-17.8 1.82A17.33 17.33 0 0 1 42.44 73l21.92-3 38-5.79v-.1a43.16 43.16 0 1 0-.15 3.94zm-4.56-24.33c1.91 0 3.49 2.5 3.52 5.63s-1.5 5.7-3.41 5.7-3.49-2.5-3.51-5.63 1.49-5.69 3.4-5.7zm-30.43 9.09c0-3.13 1.5-5.68 3.41-5.7s3.48 2.51 3.51 5.63-1.49 5.68-3.4 5.7-3.49-2.5-3.52-5.63z"/><use xlink:href="#D" x="-5" y="-5"/><path d="M17.24 56.82A9.76 9.76 0 0 1 11 55c-3.66-2.85-3.56-7.84-3.52-10.18 0-1.53.41-10.38 7.75-14.58a15.91 15.91 0 0 1 10.58-1.68A11 11 0 0 1 24.63 23a8.35 8.35 0 0 1 2-5.59c2.37-2.41 6.1-2.11 8.6-1.9a17.73 17.73 0 0 1 5.45 1.38 16.29 16.29 0 0 1 4-5.38 15.48 15.48 0 0 1 23.13 2.65 17.89 17.89 0 0 1 7.72-3c1-.14 7.94-1 10.91 2.76a6.91 6.91 0 0 1 1.16 2.32 7.38 7.38 0 0 1-.77 5.32 13.11 13.11 0 0 1 7-.25C101 23.13 103.5 30.78 103.9 32c.84 2.52 2.67 8-.64 11.74-3.11 3.46-8.44 2.73-9.09 2.63a42.58 42.58 0 0 0-17.71-10.28c-17.61-5-33.69 3.85-42.54 8.69a83.53 83.53 0 0 0-16.68 12.04z"/><use xlink:href="#B" x="-6" y="-6"/><use xlink:href="#C" x="-6" y="-6"/><path d="M16.74,56.32a9.76,9.76,0,0,1-6.21-1.86C6.87,51.61,7,46.62,7,44.28c0-1.53.41-10.38,7.75-14.58A15.91,15.91,0,0,1,25.34,28a11,11,0,0,1-1.21-5.53,8.35,8.35,0,0,1,2-5.59c2.37-2.43,6.11-2.1,8.61-1.89a17.73,17.73,0,0,1,5.45,1.38,16.29,16.29,0,0,1,4-5.38,15.48,15.48,0,0,1,23.13,2.65,17.89,17.89,0,0,1,7.72-3c1-.14,7.94-1,10.91,2.76a6.91,6.91,0,0,1,1.16,2.32,7.38,7.38,0,0,1-.77,5.32,13.11,13.11,0,0,1,7-.25c7.13,1.8,9.67,9.45,10.07,10.67.84,2.52,2.67,8-.64,11.74-3.11,3.46-8.44,2.73-9.09,2.63A42.58,42.58,0,0,0,76,35.59c-17.61-5-33.69,3.85-42.54,8.69A83.53,83.53,0,0,0,16.74,56.32Z"/><path d="M74.62 71a16.29 16.29 0 0 1-5.74 13.72c-5.38 4.47-12.56 4.37-17.8 1.82A17.33 17.33 0 0 1 41.44 72l21.92-3 38-5.79v-.1a43.16 43.16 0 1 0-.15 3.94zm-4.56-24.33c1.91 0 3.49 2.5 3.52 5.63s-1.5 5.7-3.41 5.7-3.49-2.5-3.51-5.63 1.49-5.69 3.4-5.7zm-30.43 9.09c0-3.13 1.5-5.68 3.41-5.7s3.48 2.51 3.51 5.63-1.49 5.68-3.4 5.7-3.49-2.5-3.52-5.63z"/><use xlink:href="#D" x="-6" y="-6"/><path d="M16.24 55.82A9.76 9.76 0 0 1 10 54c-3.66-2.85-3.56-7.84-3.52-10.18 0-1.53.41-10.38 7.75-14.58a15.91 15.91 0 0 1 10.58-1.68A11 11 0 0 1 23.63 22a8.35 8.35 0 0 1 2-5.59c2.37-2.41 6.1-2.11 8.6-1.9a17.73 17.73 0 0 1 5.45 1.38 16.29 16.29 0 0 1 4-5.38 15.48 15.48 0 0 1 23.13 2.65 17.89 17.89 0 0 1 7.72-3c1-.14 7.94-1 10.91 2.76a6.91 6.91 0 0 1 1.16 2.32 7.38 7.38 0 0 1-.77 5.32 13.11 13.11 0 0 1 7-.25C100 22.13 102.5 29.78 102.9 31c.84 2.52 2.67 8-.64 11.74-3.11 3.46-8.44 2.73-9.09 2.63a42.58 42.58 0 0 0-17.71-10.28c-17.61-5-33.69 3.85-42.54 8.69a83.53 83.53 0 0 0-16.68 12.04z"/><use xlink:href="#B" x="-7" y="-7"/><use xlink:href="#C" x="-7" y="-7"/><path d="M15.74,55.32a9.76,9.76,0,0,1-6.21-1.86C5.87,50.61,6,45.62,6,43.28c0-1.53.41-10.38,7.75-14.58A15.91,15.91,0,0,1,24.34,27a11,11,0,0,1-1.21-5.53,8.35,8.35,0,0,1,2-5.59c2.37-2.43,6.11-2.1,8.61-1.89a17.73,17.73,0,0,1,5.45,1.38,16.29,16.29,0,0,1,4-5.38,15.48,15.48,0,0,1,23.13,2.65,17.89,17.89,0,0,1,7.72-3c1-.14,7.94-1,10.91,2.76a6.91,6.91,0,0,1,1.16,2.32,7.38,7.38,0,0,1-.77,5.32,13.11,13.11,0,0,1,7-.25c7.13,1.8,9.67,9.45,10.07,10.67.84,2.52,2.67,8-.64,11.74-3.11,3.46-8.44,2.73-9.09,2.63A42.58,42.58,0,0,0,75,34.59c-17.61-5-33.69,3.85-42.54,8.69A83.53,83.53,0,0,0,15.74,55.32Z"/><path d="M73.62 70a16.29 16.29 0 0 1-5.74 13.72c-5.38 4.47-12.56 4.37-17.8 1.82A17.33 17.33 0 0 1 40.44 71l21.92-3 38-5.79v-.1a43.16 43.16 0 1 0-.15 3.94zm-4.56-24.33c1.91 0 3.49 2.5 3.52 5.63s-1.5 5.7-3.41 5.7-3.49-2.5-3.51-5.63 1.49-5.69 3.4-5.7zm-30.43 9.09c0-3.13 1.5-5.68 3.41-5.7s3.48 2.51 3.51 5.63-1.49 5.68-3.4 5.7-3.49-2.5-3.52-5.63z"/><use xlink:href="#D" x="-7" y="-7"/><path d="M15.24 54.82A9.76 9.76 0 0 1 9 53c-3.66-2.85-3.56-7.84-3.52-10.18 0-1.53.41-10.38 7.75-14.58a15.91 15.91 0 0 1 10.58-1.68A11 11 0 0 1 22.63 21a8.35 8.35 0 0 1 2-5.59c2.37-2.41 6.1-2.11 8.6-1.9a17.73 17.73 0 0 1 5.45 1.38 16.29 16.29 0 0 1 4-5.38 15.48 15.48 0 0 1 23.13 2.65 17.89 17.89 0 0 1 7.72-3c1-.14 7.94-1 10.91 2.76a6.91 6.91 0 0 1 1.16 2.32 7.38 7.38 0 0 1-.77 5.32 13.11 13.11 0 0 1 7-.25C99 21.13 101.5 28.78 101.9 30c.84 2.52 2.67 8-.64 11.74-3.11 3.46-8.44 2.73-9.09 2.63a42.58 42.58 0 0 0-17.71-10.28c-17.61-5-33.69 3.85-42.54 8.69a83.53 83.53 0 0 0-16.68 12.04z"/><use xlink:href="#B" x="-8" y="-8"/><use xlink:href="#C" x="-8" y="-8"/><path d="M14.74,54.32a9.76,9.76,0,0,1-6.21-1.86C4.87,49.61,5,44.62,5,42.28c0-1.53.41-10.38,7.75-14.58A15.91,15.91,0,0,1,23.34,26a11,11,0,0,1-1.21-5.53,8.35,8.35,0,0,1,2-5.59c2.37-2.43,6.11-2.1,8.61-1.89a17.73,17.73,0,0,1,5.45,1.38,16.29,16.29,0,0,1,4-5.38,15.48,15.48,0,0,1,23.13,2.65,17.89,17.89,0,0,1,7.72-3c1-.14,7.94-1,10.91,2.76a6.91,6.91,0,0,1,1.16,2.32,7.38,7.38,0,0,1-.77,5.32,13.11,13.11,0,0,1,7-.25c7.13,1.8,9.67,9.45,10.07,10.67.84,2.52,2.67,8-.64,11.74-3.11,3.46-8.44,2.73-9.09,2.63A42.58,42.58,0,0,0,74,33.59c-17.61-5-33.69,3.85-42.54,8.69A83.53,83.53,0,0,0,14.74,54.32Z"/><path d="M72.62 69a16.29 16.29 0 0 1-5.74 13.72c-5.38 4.47-12.56 4.37-17.8 1.82A17.33 17.33 0 0 1 39.44 70l21.92-3 38-5.79v-.1a43.16 43.16 0 1 0-.15 3.89zm-4.56-24.33c1.91 0 3.49 2.5 3.52 5.63s-1.5 5.7-3.41 5.7-3.49-2.5-3.51-5.63 1.49-5.69 3.4-5.7zm-30.43 9.09c0-3.13 1.5-5.68 3.41-5.7s3.48 2.51 3.51 5.63-1.49 5.68-3.4 5.7-3.49-2.5-3.52-5.63z"/><use xlink:href="#D" x="-8" y="-8"/><path d="M14.24 53.82A9.76 9.76 0 0 1 8 52c-3.66-2.85-3.56-7.84-3.52-10.18 0-1.53.41-10.38 7.75-14.58a15.91 15.91 0 0 1 10.58-1.68A11 11 0 0 1 21.63 20a8.35 8.35 0 0 1 2-5.59c2.37-2.41 6.1-2.11 8.6-1.9a17.73 17.73 0 0 1 5.45 1.38 16.29 16.29 0 0 1 4-5.38 15.48 15.48 0 0 1 23.13 2.65 17.89 17.89 0 0 1 7.72-3c1-.14 7.94-1 10.91 2.76a6.91 6.91 0 0 1 1.16 2.32 7.38 7.38 0 0 1-.77 5.32 13.11 13.11 0 0 1 7-.25C98 20.13 100.5 27.78 100.9 29c.84 2.52 2.67 8-.64 11.74-3.11 3.46-8.44 2.73-9.09 2.63a42.58 42.58 0 0 0-17.71-10.28c-17.61-5-33.69 3.85-42.54 8.69a83.53 83.53 0 0 0-16.68 12.04z"/><use xlink:href="#B" x="-9" y="-9"/><use xlink:href="#C" x="-9" y="-9"/><path d="M13.74,53.32a9.76,9.76,0,0,1-6.21-1.86C3.87,48.61,4,43.62,4,41.28c0-1.53.41-10.38,7.75-14.58A15.91,15.91,0,0,1,22.34,25a11,11,0,0,1-1.21-5.53,8.35,8.35,0,0,1,2-5.59c2.37-2.43,6.11-2.1,8.61-1.89a17.73,17.73,0,0,1,5.45,1.38,16.29,16.29,0,0,1,4-5.38,15.48,15.48,0,0,1,23.13,2.65,17.89,17.89,0,0,1,7.72-3c1-.14,7.94-1,10.91,2.76a6.91,6.91,0,0,1,1.16,2.32,7.38,7.38,0,0,1-.77,5.32,13.11,13.11,0,0,1,7-.25c7.13,1.8,9.67,9.45,10.07,10.67.84,2.52,2.67,8-.64,11.74-3.11,3.46-8.44,2.73-9.09,2.63A42.58,42.58,0,0,0,73,32.59c-17.61-5-33.69,3.85-42.54,8.69A83.53,83.53,0,0,0,13.74,53.32Z"/><path d="M71.62 68a16.29 16.29 0 0 1-5.74 13.72c-5.38 4.47-12.56 4.37-17.8 1.82A17.33 17.33 0 0 1 38.44 69l21.92-3 38-5.79v-.1a43.16 43.16 0 1 0-.15 3.89zm-4.56-24.33c1.91 0 3.49 2.5 3.52 5.63s-1.5 5.7-3.41 5.7-3.49-2.5-3.51-5.63 1.49-5.69 3.4-5.7zm-30.43 9.09c0-3.13 1.5-5.68 3.41-5.7s3.48 2.51 3.51 5.63-1.49 5.68-3.4 5.7-3.49-2.5-3.52-5.63z"/><use xlink:href="#D" x="-9" y="-9"/><path d="M13.24 52.82A9.76 9.76 0 0 1 7 51c-3.66-2.85-3.56-7.84-3.52-10.18 0-1.53.41-10.38 7.75-14.58a15.91 15.91 0 0 1 10.58-1.68A11 11 0 0 1 20.63 19a8.35 8.35 0 0 1 2-5.59c2.37-2.41 6.1-2.11 8.6-1.9a17.73 17.73 0 0 1 5.45 1.38 16.29 16.29 0 0 1 4-5.38 15.48 15.48 0 0 1 23.13 2.65 17.89 17.89 0 0 1 7.72-3c1-.14 7.94-1 10.91 2.76a6.91 6.91 0 0 1 1.16 2.32 7.38 7.38 0 0 1-.77 5.32 13.11 13.11 0 0 1 7-.25C97 19.13 99.5 26.78 99.9 28c.84 2.52 2.67 8-.64 11.74-3.11 3.46-8.44 2.73-9.09 2.63a42.58 42.58 0 0 0-17.71-10.28c-17.61-5-33.69 3.85-42.54 8.69a83.53 83.53 0 0 0-16.68 12.04z"/><use xlink:href="#B" x="-10" y="-10"/><use xlink:href="#C" x="-10" y="-10"/><path d="M12.74 52.32a9.76 9.76 0 0 1-6.21-1.86C2.87 47.61 3 42.62 3 40.28c0-1.53.41-10.38 7.75-14.58A15.91 15.91 0 0 1 21.34 24a11 11 0 0 1-1.21-5.53 8.35 8.35 0 0 1 2-5.59c2.37-2.43 6.11-2.1 8.61-1.89a17.73 17.73 0 0 1 5.45 1.38 16.29 16.29 0 0 1 4-5.38 16 16 0 0 1 12-3.93 16.07 16.07 0 0 1 11.09 6.6 17.89 17.89 0 0 1 7.72-3c1-.14 7.94-1 10.91 2.76a6.91 6.91 0 0 1 1.16 2.32 7.38 7.38 0 0 1-.77 5.32 13.11 13.11 0 0 1 7-.25c7.16 1.82 9.7 9.47 10.1 10.69.84 2.52 2.67 8-.64 11.74-3.11 3.46-8.44 2.73-9.09 2.63A42.58 42.58 0 0 0 72 31.59c-17.61-4.95-33.69 3.85-42.54 8.69a83.53 83.53 0 0 0-16.72 12.04z"/><path d="M70.62 67a16.29 16.29 0 0 1-5.74 13.72c-5.38 4.47-12.56 4.37-17.8 1.82A17.33 17.33 0 0 1 37.44 68l21.92-3 38-5.79v-.1a43.16 43.16 0 1 0-.15 3.89zm-4.56-24.33c1.91 0 3.49 2.5 3.52 5.63s-1.5 5.7-3.41 5.7-3.49-2.5-3.51-5.63 1.49-5.69 3.4-5.7zm-30.43 9.09c0-3.13 1.5-5.68 3.41-5.7s3.48 2.51 3.51 5.63-1.49 5.68-3.4 5.7-3.49-2.5-3.52-5.63z"/><use xlink:href="#D" x="-10" y="-10"/><path d="M12.24 51.82A9.76 9.76 0 0 1 6 50c-3.66-2.85-3.56-7.84-3.52-10.18 0-1.53.41-10.38 7.75-14.58a15.91 15.91 0 0 1 10.58-1.68A11 11 0 0 1 19.63 18a8.35 8.35 0 0 1 2-5.59c2.37-2.41 6.1-2.11 8.6-1.9a17.73 17.73 0 0 1 5.45 1.38 16.29 16.29 0 0 1 4-5.38 16 16 0 0 1 12-3.93 16.07 16.07 0 0 1 11.1 6.58 17.89 17.89 0 0 1 7.72-3c1-.14 7.94-1 10.91 2.76a6.91 6.91 0 0 1 1.16 2.32 7.38 7.38 0 0 1-.77 5.32 13.11 13.11 0 0 1 7-.25C96 18.13 98.5 25.78 98.9 27c.84 2.52 2.67 8-.64 11.74-3.11 3.46-8.44 2.73-9.09 2.63a42.58 42.58 0 0 0-17.71-10.28c-17.61-4.95-33.69 3.85-42.54 8.69a83.53 83.53 0 0 0-16.68 12.04z"/><use xlink:href="#B" x="-11" y="-11"/><use xlink:href="#C" x="-11" y="-11"/><path d="M11.74 51.32a9.76 9.76 0 0 1-6.21-1.86C1.87 46.61 2 41.62 2 39.28c0-1.53.41-10.38 7.75-14.58A15.91 15.91 0 0 1 20.34 23a11 11 0 0 1-1.21-5.53 8.35 8.35 0 0 1 2-5.59c2.37-2.43 6.11-2.1 8.61-1.89a17.73 17.73 0 0 1 5.45 1.38 16.29 16.29 0 0 1 4-5.38 16 16 0 0 1 12-3.93 16.07 16.07 0 0 1 11.09 6.6 17.89 17.89 0 0 1 7.72-3c1-.14 7.94-1 10.91 2.76a6.91 6.91 0 0 1 1.16 2.32 7.38 7.38 0 0 1-.77 5.32 13.11 13.11 0 0 1 7-.25c7.16 1.82 9.7 9.47 10.1 10.69.84 2.52 2.67 8-.64 11.74-3.11 3.46-8.44 2.73-9.09 2.63A42.58 42.58 0 0 0 71 30.59c-17.61-4.95-33.69 3.85-42.54 8.69a83.53 83.53 0 0 0-16.72 12.04z"/><path d="M69.62 66a16.29 16.29 0 0 1-5.74 13.72c-5.38 4.47-12.56 4.37-17.8 1.82A17.33 17.33 0 0 1 36.44 67l21.92-3 38-5.79v-.1a43.16 43.16 0 1 0-.15 3.89zm-4.56-24.33c1.91 0 3.49 2.5 3.52 5.63s-1.5 5.7-3.41 5.7-3.49-2.5-3.51-5.63 1.49-5.69 3.4-5.7zm-30.43 9.09c0-3.13 1.5-5.68 3.41-5.7s3.48 2.51 3.51 5.63-1.49 5.68-3.4 5.7-3.49-2.5-3.52-5.63z"/><use xlink:href="#D" x="-11" y="-11"/><path d="M11.24 50.82A9.76 9.76 0 0 1 5 49c-3.66-2.85-3.56-7.84-3.52-10.18 0-1.53.41-10.38 7.75-14.58a15.91 15.91 0 0 1 10.58-1.68A11 11 0 0 1 18.63 17a8.35 8.35 0 0 1 2-5.59C23 9 26.73 9.3 29.23 9.51a17.73 17.73 0 0 1 5.45 1.38 16.29 16.29 0 0 1 4-5.38 16 16 0 0 1 12-3.93 16.07 16.07 0 0 1 11.1 6.58 17.89 17.89 0 0 1 7.72-3c1-.14 7.94-1 10.91 2.76a6.91 6.91 0 0 1 1.16 2.32 7.38 7.38 0 0 1-.77 5.32 13.11 13.11 0 0 1 7-.25C95 17.13 97.5 24.78 97.9 26c.84 2.52 2.67 8-.64 11.74-3.11 3.46-8.44 2.73-9.09 2.63a42.58 42.58 0 0 0-17.71-10.28c-17.61-4.95-33.69 3.85-42.54 8.69a83.53 83.53 0 0 0-16.68 12.04z"/><use xlink:href="#B" x="-12" y="-12"/><use xlink:href="#C" x="-12" y="-12"/><path d="M10.74 50.32a9.76 9.76 0 0 1-6.21-1.86C.87 45.61 1 40.62 1 38.28c0-1.53.41-10.38 7.75-14.58A15.91 15.91 0 0 1 19.34 22a11 11 0 0 1-1.21-5.53 8.35 8.35 0 0 1 2-5.59c2.36-2.41 6.1-2.08 8.6-1.88a17.73 17.73 0 0 1 5.45 1.38 16.29 16.29 0 0 1 4-5.38 16 16 0 0 1 12-3.93 16.07 16.07 0 0 1 11.1 6.59 17.89 17.89 0 0 1 7.72-3c1-.14 7.94-1 10.91 2.76a6.91 6.91 0 0 1 1.16 2.32 7.38 7.38 0 0 1-.77 5.32 13.11 13.11 0 0 1 7-.25c7.16 1.82 9.7 9.47 10.1 10.69.84 2.52 2.67 8-.64 11.74-3.11 3.46-8.44 2.73-9.09 2.63A42.58 42.58 0 0 0 70 29.59c-17.61-4.95-33.69 3.85-42.54 8.69a83.53 83.53 0 0 0-16.72 12.04z"/><path d="M68.62 65a16.29 16.29 0 0 1-5.74 13.72c-5.38 4.47-12.56 4.37-17.8 1.82A17.33 17.33 0 0 1 35.44 66l21.92-3 38-5.79v-.1a43.16 43.16 0 1 0-.15 3.89zm-4.56-24.33c1.91 0 3.49 2.5 3.52 5.63s-1.5 5.7-3.41 5.7-3.49-2.5-3.51-5.63 1.49-5.69 3.4-5.7zm-30.43 9.09c0-3.13 1.5-5.68 3.41-5.7s3.48 2.51 3.51 5.63-1.49 5.68-3.4 5.7-3.49-2.5-3.52-5.63z"/><use xlink:href="#D" x="-12" y="-12"/><path d="M10.24 49.82A9.76 9.76 0 0 1 4 48C.37 45.11.47 40.12.51 37.78c0-1.53.41-10.38 7.75-14.58a15.91 15.91 0 0 1 10.58-1.68A11 11 0 0 1 17.63 16a8.35 8.35 0 0 1 2-5.59C22 8 25.73 8.3 28.23 8.51a17.73 17.73 0 0 1 5.45 1.38 16.29 16.29 0 0 1 4-5.38 16 16 0 0 1 12-3.93 16.07 16.07 0 0 1 11.1 6.58 17.89 17.89 0 0 1 7.72-3c1-.14 7.94-1 10.91 2.76a6.91 6.91 0 0 1 1.16 2.32 7.38 7.38 0 0 1-.77 5.32 13.11 13.11 0 0 1 7-.25C94 16.13 96.5 23.78 96.9 25c.84 2.52 2.67 8-.64 11.74-3.11 3.46-8.44 2.73-9.09 2.63a42.58 42.58 0 0 0-17.71-10.28c-17.61-4.95-33.69 3.85-42.54 8.69a83.53 83.53 0 0 0-16.68 12.04z"/></g><g stroke="#232253"><path d="M96.9 25c-.4-1.22-2.94-8.87-10.07-10.67a13.11 13.11 0 0 0-7 .25 7.38 7.38 0 0 0 .77-5.32 6.91 6.91 0 0 0-1.16-2.32c-3-3.8-9.87-2.9-10.91-2.76a17.89 17.89 0 0 0-7.72 3A16.07 16.07 0 0 0 49.67.58a16 16 0 0 0-12 3.93 16.29 16.29 0 0 0-4 5.38 17.73 17.73 0 0 0-5.45-1.38C25.73 8.3 22 8 19.62 10.4a8.35 8.35 0 0 0-2 5.59 11 11 0 0 0 1.21 5.53A15.91 15.91 0 0 0 8.26 23.2C.92 27.4.54 36.25.51 37.78.47 40.12.37 45.11 4 48a9.49 9.49 0 0 0 5.82 1.86 42.78 42.78 0 0 0-.34 2.31A8.53 8.53 0 0 0 3.1 55c-3.75 4.35-.4 10.55-.16 11 .33.6 3 5.2 6.88 4.93a4.7 4.7 0 0 0 1.4-.31 43.1 43.1 0 0 0 84-9.65L68.62 65a16.29 16.29 0 0 1-5.74 13.72c-5.38 4.47-12.56 4.37-17.8 1.82A17.33 17.33 0 0 1 35.44 66l21.92-3 38-5.79v-.1a43 43 0 0 0-4-17.75 8.5 8.5 0 0 0 4.91-2.56c3.3-3.75 1.47-9.28.63-11.8zM37.15 55.39c-1.92 0-3.49-2.5-3.52-5.63s1.5-5.68 3.41-5.7 3.48 2.51 3.51 5.63-1.49 5.68-3.4 5.7zm27-3.4c-1.91 0-3.49-2.5-3.51-5.63s1.49-5.68 3.4-5.69 3.49 2.5 3.52 5.63-1.48 5.7-3.39 5.7z" fill="#fff" stroke-miterlimit="10"/><path d="M9.83,50a41.76,41.76,0,0,1,14-19c7.82-5.85,15.54-7.15,21-8,5.19-.81,18.94-2.73,33,5a47.94,47.94,0,0,1,15,13" fill="none" stroke-linecap="round" stroke-linejoin="round"/></g><defs ><path id="B" d="M81.12 77.54a16.29 16.29 0 0 1-5.74 13.72c-5.38 4.47-12.56 4.37-17.8 1.82a17.33 17.33 0 0 1-9.64-14.59l21.92-3 38-5.79v-.1a43.16 43.16 0 1 0-.15 3.94zm-4.56-24.37c1.91 0 3.49 2.5 3.52 5.63s-1.5 5.67-3.41 5.69-3.49-2.5-3.51-5.63 1.49-5.68 3.4-5.69zm-30.43 9.09c0-3.13 1.5-5.68 3.41-5.7s3.48 2.51 3.51 5.63-1.49 5.68-3.4 5.7-3.49-2.5-3.52-5.63z"/><path id="C" d="M26.35 81.28a6.22 6.22 0 0 1-4 2.17c-3.89.27-6.55-4.33-6.88-4.93-.24-.43-3.59-6.63.16-11 2.06-2.4 5.72-3.6 8.47-2.51 5.17 2.1 6.02 11.99 2.25 16.27z"/><path id="D" d="M25.85 80.78a6.22 6.22 0 0 1-4 2.17c-3.89.27-6.55-4.33-6.88-4.93-.24-.43-3.59-6.63.16-11 2.06-2.4 5.72-3.6 8.47-2.51 5.17 2.1 6.02 12 2.25 16.27z"/></defs></svg>