<svg xmlns="http://www.w3.org/2000/svg" xmlns:xlink="http://www.w3.org/1999/xlink" viewBox="0 0 354 354"><defs><style>.cls-1{fill:none;}.cls-2{fill:#e1efff;}.cls-3{clip-path:url(#clip-path);}.cls-4{fill:#6faef2;opacity:0.25;}.cls-14,.cls-5{fill:#fffbe0;}.cls-5{stroke:#2b2b2b;}.cls-11,.cls-12,.cls-13,.cls-5{stroke-miterlimit:10;}.cls-10,.cls-6{fill:#2b2b2b;}.cls-7{clip-path:url(#clip-path-2);}.cls-8{fill:#f0f;opacity:0.14;}.cls-11,.cls-13,.cls-9{fill:#fff;}.cls-10{opacity:0.39;}.cls-11,.cls-12,.cls-13{stroke:#000;}.cls-11{stroke-width:0.5px;}.cls-12{fill:#fad4ff;stroke-width:0.25px;}</style><clipPath id="clip-path"><circle class="cls-1" cx="177" cy="307" r="177"/></clipPath><clipPath id="clip-path-2"><circle class="cls-1" cx="175.28" cy="187.22" r="66.72"/></clipPath></defs><title>no_internet</title><g id="Layer_2" data-name="Layer 2"><g id="Layer_12" data-name="Layer 12"><circle class="cls-2" cx="177" cy="177" r="177"/><g class="cls-3"><circle class="cls-4" cx="177" cy="177" r="177"/></g><circle class="cls-5" cx="175.28" cy="187.22" r="66.72"/><ellipse class="cls-6" cx="160.79" cy="192.21" rx="7.34" ry="4.44" transform="translate(-33.87 350.03) rotate(-89.12)"/><ellipse class="cls-6" cx="196.79" cy="192.21" rx="7.34" ry="4.44" transform="translate(1.58 386.02) rotate(-89.12)"/><g class="cls-7"><path class="cls-8" d="M226,141c-3.36-3-25.42-22-55.5-17.5a68.27,68.27,0,0,0-36,18c-2.58,2.47-19.25,18.88-21,44-1.86,26.6,13.71,52.93,39.5,67.5-26.78-5.27-48.63-23.77-56.5-48.5-10.47-32.92,7.89-64.14,28-80,1.53-1.2,38.75-29.63,74-12C214.54,120.52,222.67,134.33,226,141Z"/></g><path class="cls-9" d="M130.69,154.16c3-3.94,12.5-16.2,22-19.68,1.79-.65,4.74-1.68,7.28-.24a6.37,6.37,0,0,1,3.09,6.36c-.65,3.24-4.52,4.56-6.7,5.3a16.64,16.64,0,0,1-6,.89C146.63,146.67,140.6,147.93,130.69,154.16Z"/><circle class="cls-9" cx="127" cy="159" r="2"/><circle class="cls-9" cx="123.5" cy="166.5" r="2.5"/><ellipse class="cls-10" cx="176.77" cy="275.98" rx="70.73" ry="6.52"/><path class="cls-11" d="M157.5,234.5a24.16,24.16,0,0,1,5-10h-2a17.43,17.43,0,0,0-3,4c-2.27,4.18-2.06,8.06-2,12,.05,3-.3,8.69-1,20-.46,7.43-.86,10.11-3,12-2.73,2.42-6.64,2.1-8,2-9.12-.67-53.84-2.84-115.5-5.93v2c8.09.37,14.8.7,19.5.93,23.29,1.15,30.37,1.61,58,3,20,1,19.45.92,20,1,5.49.81,10.33.88,20,1,1.57,0,4.63,0,7-2,2.06-1.75,2.63-4.21,3-6a104,104,0,0,0,2-24C157.2,239.14,156.8,237.65,157.5,234.5Z"/><path class="cls-11" d="M325,274.48c-9.91-.41-39.83-1.6-64.5-2-14.09-.22-19.22-.06-21,0-16.1.54-24.14.82-25,1s-4.29.13-11,0a4.29,4.29,0,0,1-3-1c-1.24-1.22-1-3.23-1-4a92,92,0,0,1,1-13c1-6-.15-10.82-1.5-16.5a55.66,55.66,0,0,0-6-15l-1,2c7.2,15.85,7.94,24.23,7,29-.38,1.94-.59,4.63-1,10s-.34,7.58,1,9c1.63,1.73,4.3,1.6,6.5,1.5,8.66-.4,17.34-.57,26-1,2.06-.1,2.13-.05,12,0,17.38.09,26.61,0,33,0,10.44,0,26.15.38,48.5,2Z"/><path class="cls-6" d="M185.77,223.14a10.13,10.13,0,0,0,.46,1.58c1.56,4,5.33,6.31,8.42,5.12s4.33-5.43,2.77-9.45a9.21,9.21,0,0,0-.72-1.48Z"/><rect class="cls-12" x="160.74" y="216.24" width="2" height="3" transform="translate(85.3 -42.51) rotate(20.24)"/><rect class="cls-12" x="166.37" y="218.32" width="2" height="3" transform="translate(86.37 -44.33) rotate(20.24)"/><path class="cls-6" d="M158.69,217.74a10.76,10.76,0,0,0-.7,1.49c-1.49,4.05-.17,8.25,2.93,9.4s6.84-1.2,8.33-5.25a10.53,10.53,0,0,0,.45-1.59Z"/><path class="cls-5" d="M122.5,210.5a62.25,62.25,0,0,0,1,21c1,4.49,2.14,6.92,4,9,.95,1.06,5,5.19,11,5,5.74-.18,9.35-4.17,11-6a20.44,20.44,0,0,0,5-11,4.67,4.67,0,0,1,3-4,4.28,4.28,0,0,1,4,1c2.8,2.6.72,8.86,0,11a24.78,24.78,0,0,1-11,14,24.38,24.38,0,0,1-15,3,22.17,22.17,0,0,1-12-5c-1.93-1.66-4.71-4.7-7-12-3.64-11.61-2.5-22.72-1-30"/><path class="cls-5" d="M231.91,210.5a64.91,64.91,0,0,1-1,21c-1,4.49-2.05,6.92-3.84,9-.91,1.06-4.78,5.19-10.57,5-5.51-.18-9-4.17-10.56-6a20.89,20.89,0,0,1-4.81-11,4.64,4.64,0,0,0-2.88-4,4,4,0,0,0-3.84,1c-2.7,2.6-.69,8.86,0,11,.76,2.38,3.19,9.57,10.57,14a22.62,22.62,0,0,0,14.41,3,20.83,20.83,0,0,0,11.52-5c1.86-1.66,4.53-4.7,6.73-12,3.49-11.61,2.4-22.72,1-30"/><path class="cls-13" d="M233.55,145.5,224.86,124l-9.09,21a11.16,11.16,0,0,0-.39,4.5c.63,5,5,9.11,9.48,9s8.57-4.17,9.09-9A10.34,10.34,0,0,0,233.55,145.5Z"/><path class="cls-14" d="M164,182a9.67,9.67,0,0,1-3,5c-3.69,3.2-8.47,2.13-9,2l2-6Z"/><path class="cls-14" d="M193,181a19.59,19.59,0,0,0,6,7c1.71,1.21,4,2.82,6,2a4.07,4.07,0,0,0,2-2Z"/></g></g></svg>