<svg xmlns="http://www.w3.org/2000/svg" xmlns:xlink="http://www.w3.org/1999/xlink" viewBox="0 0 297 387"><defs><style>.cls-1,.cls-24,.cls-25{fill:none;}.cls-2{fill:#fff6d1;}.cls-3{clip-path:url(#clip-path);}.cls-4{fill:#f3d86d;opacity:0.25;}.cls-5,.cls-6{fill:#2b2b2b;}.cls-5{opacity:0.39;}.cls-7,.cls-8{fill:#fffbe0;}.cls-13,.cls-14,.cls-15,.cls-17,.cls-18,.cls-19,.cls-24,.cls-25,.cls-7,.cls-8{stroke:#2b2b2b;}.cls-20,.cls-21,.cls-22,.cls-25,.cls-7{stroke-linecap:round;stroke-linejoin:round;}.cls-13,.cls-14,.cls-15,.cls-17,.cls-18,.cls-19,.cls-24,.cls-8{stroke-miterlimit:10;}.cls-9{clip-path:url(#clip-path-2);}.cls-10{fill:#f0f;opacity:0.14;}.cls-11{fill:#171717;}.cls-12,.cls-20,.cls-21,.cls-22{fill:#fff;}.cls-13{font-size:112.73px;}.cls-13,.cls-14,.cls-15{fill:#e1efff;}.cls-13,.cls-14,.cls-15,.cls-17,.cls-18,.cls-19{stroke-width:2px;font-family:Poppins-Bold, Poppins;font-weight:700;}.cls-14,.cls-18{font-size:112.73px;}.cls-15{font-size:112.73px;}.cls-16{clip-path:url(#clip-path-3);}.cls-17{font-size:112.73px;}.cls-17,.cls-18,.cls-19{fill:#bddaff;}.cls-19{font-size:112.73px;}.cls-20,.cls-21,.cls-22{stroke:#fff;}.cls-21{stroke-width:1.5px;}.cls-22{stroke-width:0.8px;}.cls-23{fill:#444;}.cls-24{stroke-width:0.5px;}</style><clipPath id="clip-path" transform="translate(-43.81)"><circle class="cls-1" cx="190.31" cy="342.5" r="184.5"/></clipPath><clipPath id="clip-path-2" transform="translate(-43.81)"><path class="cls-1" d="M244.31,198.5C197,182,150.26,200.09,134.81,233c-9.29,19.77-9.29,47.79,6.5,67.5,20.5,25.59,63.35,32.08,99.5,9.5-32.29,35.78-84.87,40.5-118.5,14.5-31.4-24.27-40.58-70.87-23-103,14.69-26.87,43.09-35.12,53-38C198.13,170.19,237.06,193.91,244.31,198.5Z"/></clipPath><clipPath id="clip-path-3" transform="translate(-43.81)"><path class="cls-1" d="M.4,144.71c6.94-14.85,102.49,25.73,134-11.71,5.79-6.88,8-14.7,19.52-23.42,4.82-3.65,24.29-17.33,49.44-13a62.54,62.54,0,0,1,29.93,14.32c12.92,11.11,9.81,17.92,22.12,28.62,4.16,3.62,19.37,15.76,37.73,14.31,16.62-1.3,20.23-12.51,31.23-10.41,13.13,2.52,23.78,21.51,23.42,37.74-.58,25.73-28.82,43.14-39,49.44C217.37,286.92,79.93,210.93,64.15,202,25,179.66-3.75,153.58.4,144.71Z"/></clipPath></defs><title>Words</title><g id="Layer_2" data-name="Layer 2"><g id="Layer_8" data-name="Layer 8"><g id="bg"><rect class="cls-2" width="297" height="387" rx="45.35"/><g class="cls-3"><rect class="cls-4" width="297" height="387" rx="45.77"/></g></g><ellipse class="cls-5" cx="147.5" cy="352" rx="69.5" ry="7"/><path class="cls-6" d="M220.68,300a52.68,52.68,0,0,0,8.72-3c1.15-.5,2.23-1,3.25-1.56l-6.77-12.14-9,7.44Z" transform="translate(-43.81)"/><path class="cls-7" d="M229.31,286.5a139.79,139.79,0,0,0,17,37l-11,4c-1.53-2.36-3.65-5.78-6-10-4.72-8.46-7.07-12.78-7-17C222.34,298.31,222.91,292.79,229.31,286.5Z" transform="translate(-43.81)"/><path class="cls-6" d="M230.31,319.5l10-5q-2-5.5-4-11l-10,9C227.64,314.83,229,317.17,230.31,319.5Z" transform="translate(-43.81)"/><circle class="cls-8" cx="145.5" cy="261.5" r="67.5"/><g class="cls-9"><circle class="cls-10" cx="146" cy="261" r="67.5"/></g><path class="cls-11" d="M244,348.41l-.25,0-16.5,2.66c-1,.16-1.46-.5-1-1.47l14.93-32.82a3.77,3.77,0,0,1,2.38-1.9l.26-.05,16.73-1.94c1-.12,1.47.55,1,1.48l-15.18,32A4.07,4.07,0,0,1,244,348.41Z" transform="translate(-43.81)"/><path class="cls-6" d="M243.44,315.37a.63.63,0,0,1,.19,0l16.73-2c.75-.09,1.09.4.75,1.1l-15.17,32a3,3,0,0,1-1.75,1.45l-.19,0-16.51,2.64c-.74.12-1.08-.37-.75-1.09l14.94-32.79a2.8,2.8,0,0,1,1.76-1.41m.28-.88h0a4.76,4.76,0,0,0-3,2.4L225.8,349.72c-.55,1.22,0,2.06,1.28,1.86l16.5-2.67.32-.07a5.13,5.13,0,0,0,3-2.47l15.18-32c.57-1.17,0-2-1.28-1.86L244,314.43l-.32.06Z" transform="translate(-43.81)"/><path class="cls-11" d="M244.54,348.91l-.25,0-16.5,2.66c-1,.16-1.46-.5-1-1.47l14.93-32.82a3.77,3.77,0,0,1,2.38-1.9l.26-.05,16.73-1.94c1-.12,1.47.55,1,1.48l-15.18,32A4.07,4.07,0,0,1,244.54,348.91Z" transform="translate(-43.81)"/><path class="cls-6" d="M243.94,315.87a.63.63,0,0,1,.19,0l16.73-2c.75-.09,1.09.4.75,1.1l-15.17,32a3,3,0,0,1-1.75,1.45l-.19,0L228,351.16c-.74.12-1.08-.37-.75-1.09l14.94-32.79a2.8,2.8,0,0,1,1.76-1.41m.28-.88h0a4.76,4.76,0,0,0-3,2.4L226.3,350.22c-.55,1.22,0,2.06,1.28,1.86l16.5-2.67.32-.07a5.13,5.13,0,0,0,3-2.47l15.18-32c.57-1.17,0-2-1.28-1.86l-16.74,1.93-.32.06Z" transform="translate(-43.81)"/><path class="cls-11" d="M245,349.41l-.25,0-16.5,2.66c-1,.16-1.46-.5-1-1.47l14.93-32.82a3.77,3.77,0,0,1,2.38-1.9l.26-.05,16.73-1.94c1-.12,1.47.55,1,1.48l-15.18,32A4.07,4.07,0,0,1,245,349.41Z" transform="translate(-43.81)"/><path class="cls-6" d="M244.44,316.37a.63.63,0,0,1,.19,0l16.73-2c.75-.09,1.09.4.75,1.1l-15.17,32a3,3,0,0,1-1.75,1.45l-.19,0-16.51,2.64c-.74.12-1.08-.37-.75-1.09l14.94-32.79a2.8,2.8,0,0,1,1.76-1.41m.28-.88h0a4.76,4.76,0,0,0-3,2.4L226.8,350.72c-.55,1.22,0,2.06,1.28,1.86l16.5-2.67.32-.07a5.13,5.13,0,0,0,3-2.47l15.18-32c.57-1.17,0-2-1.28-1.86L245,315.43l-.32.06Z" transform="translate(-43.81)"/><path class="cls-6" d="M155.81,307q-.26,6.25-.5,12.5a35.22,35.22,0,0,0,5,3c2.94,1.45,11.35,5.12,13,3a.61.61,0,0,0,.11-.21c1-3.13-2.73-11.8-9.61-14.29-1.44-.52-6.2-1.92-7-4-.07-.17-.38-1.05-.65-1S155.84,306.27,155.81,307Z" transform="translate(-43.81)"/><ellipse class="cls-6" cx="194.31" cy="273" rx="8" ry="4.5" transform="translate(-153.02 414.97) rotate(-79.63)"/><ellipse class="cls-6" cx="232.31" cy="270" rx="8" ry="4.5" transform="translate(-118.92 449.89) rotate(-79.63)"/><path class="cls-7" d="M257.48,328.18c.31-.69,1.15-1.94,1.93-1.82,1.21.19,2,3.7,1.67,6.6a10.47,10.47,0,0,1-3.69,6.88c-1,.82-3.22,2.59-5.94,2a6.58,6.58,0,0,1-4.26-3.41c-1.94-3.77-.38-10,3.37-10.88,2.27-.54,5,.95,6.84,3.41A3.65,3.65,0,0,1,257.48,328.18Z" transform="translate(-43.81)"/><path class="cls-7" d="M165.38,295a44.43,44.43,0,0,0,6.07,15.94c15,23.88,47.89,22.85,52.36,20.49,2.51-1.33,3.5-1.93,3.5-1.93,1.26-.77,2.81-1.8,5-3,1.95-1.07,2.51-1.23,3-1,.95.46,1.07,2.13,1,3-.26,3-3.48,4.73-4,5a28.69,28.69,0,0,0,7-2c2.1-.91,4.13-2.1,7.27-2.35,2-.16,2.54.21,2.73.35,1.82,1.36,1.18,5.58,0,8-2.15,4.38-7.66,6-13,7A90.37,90.37,0,0,1,195,342.05c-8.25-2.83-19.39-6.65-28.66-17.55a53,53,0,0,1-10-18" transform="translate(-43.81)"/><path class="cls-12" d="M176.82,207c2,1.26,3.43,3.94,3,6-.24,1.09-1,2.3-8,6-2.34,1.24-3.95,2-6,3-5,2.4-10.11,4.45-15,7-2.94,1.53-5.11,2.79-6,2-.22-.2-.69-.81,0-3,2.38-7.63,12-14,12-14C164,209.25,172,204,176.82,207Z" transform="translate(-43.81)"/><path class="cls-12" d="M141.58,235c-2.58,0-2.58,4,0,4S144.15,235,141.58,235Z" transform="translate(-43.81)"/><path class="cls-12" d="M139,241.67c-2.57,0-2.58,4,0,4S141.59,241.67,139,241.67Z" transform="translate(-43.81)"/><text class="cls-13" transform="translate(33.45 186.62) rotate(-13.02)">A</text><text class="cls-14" transform="translate(113.74 141.39) rotate(-2.54)">B</text><text class="cls-15" transform="translate(184.54 176.61) rotate(6.4)">C</text><g class="cls-16"><text class="cls-17" transform="translate(33.45 186.62) rotate(-13.02)">A</text><text class="cls-18" transform="translate(113.74 141.39) rotate(-2.54)">B</text><text class="cls-19" transform="translate(184.54 176.61) rotate(6.4)">C</text></g><g id="WHITE_STARS" data-name="WHITE STARS"><path class="cls-20" d="M122.21,110.5a9.73,9.73,0,0,0-6.44-6.44,9.73,9.73,0,0,0,6.44-6.44,9.68,9.68,0,0,0,6.44,6.44,9.68,9.68,0,0,0-6.44,6.44Z" transform="translate(-43.81)"/><path class="cls-21" d="M225.85,78.87a12.41,12.41,0,0,0-8.27-8.27,12.37,12.37,0,0,0,8.27-8.26,12.33,12.33,0,0,0,8.26,8.26,12.63,12.63,0,0,0-5.17,3.1A12.47,12.47,0,0,0,225.85,78.87Z" transform="translate(-43.81)"/><path class="cls-22" d="M223.67,167.54a6.6,6.6,0,0,0-4.36-4.36,6.55,6.55,0,0,0,4.36-4.36,6.5,6.5,0,0,0,4.36,4.36,6.6,6.6,0,0,0-2.73,1.64A6.53,6.53,0,0,0,223.67,167.54Z" transform="translate(-43.81)"/></g><g id="BLACK_STARS" data-name="BLACK STARS"><path d="M273.32,110.45a9.66,9.66,0,0,0-7.18-5.61,9.6,9.6,0,0,0,5.61-7.17,9.7,9.7,0,0,0,7.18,5.61,9.67,9.67,0,0,0-3.7,2.88A9.79,9.79,0,0,0,273.32,110.45Z" transform="translate(-43.81)"/><path class="cls-6" d="M157.61,128.82A6.53,6.53,0,0,0,156,126.1a6.68,6.68,0,0,0-2.73-1.64,6.5,6.5,0,0,0,4.36-4.36,6.49,6.49,0,0,0,1.64,2.73,6.56,6.56,0,0,0,2.72,1.63,6.59,6.59,0,0,0-2.72,1.64A6.45,6.45,0,0,0,157.61,128.82Z" transform="translate(-43.81)"/><path class="cls-6" d="M122.31,184.63a4.94,4.94,0,0,0-1.21-2,4.85,4.85,0,0,0-2-1.2,4.88,4.88,0,0,0,2-1.21,5,5,0,0,0,1.21-2,4.72,4.72,0,0,0,1.2,2,5,5,0,0,0,2,1.21,4.78,4.78,0,0,0-2,1.2A4.92,4.92,0,0,0,122.31,184.63Z" transform="translate(-43.81)"/><path class="cls-6" d="M322.91,162.41a4.72,4.72,0,0,0-1.2-2,5,5,0,0,0-2-1.21,4.78,4.78,0,0,0,2-1.2,4.92,4.92,0,0,0,1.2-2,4.94,4.94,0,0,0,1.21,2,4.85,4.85,0,0,0,2,1.2,4.88,4.88,0,0,0-2,1.21A5,5,0,0,0,322.91,162.41Z" transform="translate(-43.81)"/></g><path class="cls-23" d="M247.89,320.2a2.84,2.84,0,0,1-2,2c-.87.17-1.42-.44-1.23-1.34a2.84,2.84,0,0,1,2-2C247.57,318.66,248.12,319.26,247.89,320.2Z" transform="translate(-43.81)"/><path class="cls-24" d="M247.89,320.2a2.84,2.84,0,0,1-2,2c-.87.17-1.42-.44-1.23-1.34a2.84,2.84,0,0,1,2-2C247.57,318.66,248.12,319.26,247.89,320.2Z" transform="translate(-43.81)"/><path class="cls-6" d="M247.1,320.35a1.4,1.4,0,0,1-1,1c-.44.08-.71-.22-.61-.67a1.39,1.39,0,0,1,1-1C246.94,319.58,247.21,319.88,247.1,320.35Z" transform="translate(-43.81)"/><path class="cls-23" d="M245.89,325.2a2.84,2.84,0,0,1-2,2c-.87.17-1.42-.44-1.23-1.34a2.84,2.84,0,0,1,2-2C245.57,323.66,246.12,324.26,245.89,325.2Z" transform="translate(-43.81)"/><path class="cls-24" d="M245.89,325.2a2.84,2.84,0,0,1-2,2c-.87.17-1.42-.44-1.23-1.34a2.84,2.84,0,0,1,2-2C245.57,323.66,246.12,324.26,245.89,325.2Z" transform="translate(-43.81)"/><path class="cls-6" d="M245.1,325.35a1.4,1.4,0,0,1-1,1c-.44.08-.71-.22-.61-.67a1.39,1.39,0,0,1,1-1C244.94,324.58,245.21,324.88,245.1,325.35Z" transform="translate(-43.81)"/><line class="cls-25" x1="222" y1="305" x2="225" y2="300"/><line class="cls-25" x1="226.5" y1="309.5" x2="232.5" y2="309.5"/><line class="cls-25" x1="226.5" y1="317.5" x2="231.5" y2="319.5"/></g></g></svg>