<svg xmlns="http://www.w3.org/2000/svg" xmlns:xlink="http://www.w3.org/1999/xlink" viewBox="0 0 297 387"><defs><style>.cls-1,.cls-17,.cls-19{fill:none;}.cls-10,.cls-11,.cls-12,.cls-2{fill:#e1efff;}.cls-3{clip-path:url(#clip-path);}.cls-4{fill:#6faef2;opacity:0.25;}.cls-5{fill:#fffce9;stroke-width:3px;}.cls-10,.cls-11,.cls-12,.cls-14,.cls-15,.cls-16,.cls-20,.cls-21,.cls-22,.cls-24,.cls-5,.cls-6{stroke:#2b2b2b;}.cls-10,.cls-11,.cls-12,.cls-14,.cls-15,.cls-16,.cls-17,.cls-20,.cls-22,.cls-24,.cls-5,.cls-6{stroke-miterlimit:10;}.cls-6{fill:#fffef7;stroke-width:6px;}.cls-7{fill:#fff6d1;}.cls-25,.cls-8{fill:#2b2b2b;}.cls-9{clip-path:url(#clip-path-2);}.cls-10{font-size:22.38px;}.cls-10,.cls-11,.cls-12,.cls-14,.cls-15,.cls-16,.cls-19,.cls-20,.cls-24{stroke-width:0.5px;}.cls-10,.cls-11,.cls-12,.cls-14,.cls-15,.cls-16{font-family:Poppins-Bold, Poppins;font-weight:700;}.cls-11,.cls-15{font-size:22.38px;}.cls-12,.cls-16{font-size:22.38px;}.cls-13{clip-path:url(#clip-path-3);}.cls-14{font-size:22.38px;}.cls-14,.cls-15,.cls-16{fill:#bddaff;}.cls-17,.cls-19{stroke:#fff;}.cls-18,.cls-20{fill:#fff;}.cls-19,.cls-21{stroke-linecap:round;stroke-linejoin:round;}.cls-21,.cls-22{fill:#fffbe0;}.cls-23{fill:#171717;}.cls-24{fill:#444;}.cls-25{opacity:0.39;}.cls-26{clip-path:url(#clip-path-4);}.cls-27{fill:#f0f;opacity:0.14;}</style><clipPath id="clip-path" transform="translate(-38)"><circle class="cls-1" cx="184.5" cy="342.5" r="184.5"/></clipPath><clipPath id="clip-path-2" transform="translate(-38)"><rect id="SVGID" class="cls-1" x="252.3" y="110.47" width="45.56" height="45.56" transform="translate(109.55 390.2) rotate(-83.06)"/></clipPath><clipPath id="clip-path-3" transform="translate(-38)"><path class="cls-1" d="M150.27,122.37c1.38-3,20.35,5.11,26.6-2.33,1.15-1.36,1.59-2.91,3.88-4.64a13.06,13.06,0,0,1,9.81-2.59,12.46,12.46,0,0,1,5.94,2.84c2.57,2.21,1.95,3.56,4.39,5.69.83.71,3.85,3.12,7.49,2.84,3.3-.26,4-2.49,6.2-2.07,2.61.5,4.72,4.27,4.65,7.49-.12,5.11-5.72,8.56-7.75,9.81-18.14,11.19-45.42-3.9-48.55-5.68C155.15,129.31,149.45,124.13,150.27,122.37Z"/></clipPath><clipPath id="clip-path-4" transform="translate(-38)"><circle class="cls-1" cx="191.28" cy="267.22" r="66.72"/></clipPath></defs><title>WordsInPictures</title><g id="Layer_2" data-name="Layer 2"><g id="Layer_10" data-name="Layer 10"><g id="bg"><rect class="cls-2" width="297" height="387" rx="45.35"/><g class="cls-3"><rect class="cls-4" width="297" height="387" rx="45.77"/></g></g><rect class="cls-5" x="115.87" y="68.5" width="68.14" height="110.95" rx="17"/><rect class="cls-6" x="136.83" y="70.25" width="26.21" height="3.49" rx="1.62"/><path class="cls-7" d="M80.79,120.45a7.27,7.27,0,0,1,1.62-4.53,7.41,7.41,0,0,1,2.68-1.77c3-1.13,14.72-2.58,30.62-3.73l3.82,1.7,2.58,27.15-9.1,8.34-34.36,2.74-2.49-26.44,1.87-2.4Z" transform="translate(-38)"/><path class="cls-8" d="M88.87,135.48a4.46,4.46,0,1,0-4.05-7.18,4.47,4.47,0,0,0,.76,6.26,4.48,4.48,0,0,0,3.29.92Z" transform="translate(-38)"/><path class="cls-8" d="M118.34,143.87a5.95,5.95,0,0,1-5.18,6.62l-29.51,3.59A5.95,5.95,0,0,1,77,148.9l-2.87-23.61a5.93,5.93,0,0,1,5.17-6.62,5.95,5.95,0,0,1,5.19-6.62l29.5-3.59a5.94,5.94,0,0,1,6.62,5.18l2.88,23.61a5.95,5.95,0,0,1-5.18,6.62Zm-4-32.46L84.87,115a3,3,0,0,0-2.59,3.31l26.56-3.23a5.94,5.94,0,0,1,6.62,5.18L118,140.91a3,3,0,0,0,2.58-3.3L117.69,114a3,3,0,0,0-1.12-2,2.93,2.93,0,0,0-2.19-.61ZM79.7,121.62a3,3,0,0,0-2,1.12,2.93,2.93,0,0,0-.61,2.19L80,148.54l7-7.9a1.45,1.45,0,0,1,.85-.53,1.48,1.48,0,0,1,1,.12l8.48,4.28,9.62-12.28a1.51,1.51,0,0,1,.75-.52,1.6,1.6,0,0,1,.92,0l5.94,5.11-2-16.23A3,3,0,0,0,109.2,118l-29.5,3.59Z" transform="translate(-38)"/><path class="cls-7" d="M268.46,111.49l10.06.11,3.87,5,4.15,2.74,5.51.68a16.63,16.63,0,0,1,1.54,5.78,19.68,19.68,0,0,1-.81,6.62c-.57,2.39-1.41,6-2.45,10.89l-2.34.84-37.5-4.57-1.8-3.58,3.39-18.62,3.57-1.8a7,7,0,0,0,4.42.54c1.63-.38,2.35-1.31,4.81-2.77A28.44,28.44,0,0,1,268.46,111.49Z" transform="translate(-38)"/><path class="cls-8" d="M290,140.7a2.86,2.86,0,0,1-1.08,1.9,2.82,2.82,0,0,1-2.09.59l-33.92-4.13a2.85,2.85,0,0,1-2.48-3.18l2.06-16.95a2.85,2.85,0,0,1,3.17-2.49l3.32.41a8.53,8.53,0,0,0,6.29-1.76l2.63-2a2.82,2.82,0,0,1,2.09-.59l6.63.81a2.87,2.87,0,0,1,1.9,1.07l2,2.63a8.56,8.56,0,0,0,5.7,3.21l3.31.41a2.83,2.83,0,0,1,1.9,1.07,2.87,2.87,0,0,1,.58,2.1Zm-34-27.08a5.69,5.69,0,0,0-6.34,5l-2.07,17a5.69,5.69,0,0,0,5,6.34L286.5,146a5.69,5.69,0,0,0,6.34-5l2.07-17a5.69,5.69,0,0,0-5-6.34l-3.31-.4a5.71,5.71,0,0,1-3.79-2.15l-2.06-2.62a5.71,5.71,0,0,0-3.79-2.15l-6.63-.8a5.71,5.71,0,0,0-4.2,1.17l-2.62,2a5.71,5.71,0,0,1-4.2,1.17Z" transform="translate(-38)"/><path class="cls-7" d="M271.93,117.75l10.06.11,3.88,5,4.14,2.74,5.51.67a16.76,16.76,0,0,1,1.54,5.79,19.65,19.65,0,0,1-.81,6.61c-.56,2.39-1.4,6-2.44,10.9l-2.34.83L254,145.79l-1.8-3.58,3.39-18.62,3.58-1.8a7,7,0,0,0,4.41.54c1.63-.38,2.35-1.31,4.81-2.77A28.44,28.44,0,0,1,271.93,117.75Z" transform="translate(-38)"/><g class="cls-9"><path class="cls-8" d="M293.49,147a2.87,2.87,0,0,1-1.07,1.9,2.79,2.79,0,0,1-2.1.58l-33.92-4.13a2.83,2.83,0,0,1-1.9-1.07,2.87,2.87,0,0,1-.58-2.1l2.06-17a2.87,2.87,0,0,1,3.17-2.48l3.32.41a8.52,8.52,0,0,0,6.29-1.76l2.63-2a2.84,2.84,0,0,1,2.1-.59l6.62.81a2.87,2.87,0,0,1,1.9,1.07l2.05,2.63a8.51,8.51,0,0,0,2.53,2.17,8.65,8.65,0,0,0,3.17,1l3.31.4a2.89,2.89,0,0,1,1.9,1.08,2.85,2.85,0,0,1,.58,2.09Zm-34-27.08a5.67,5.67,0,0,0-6.34,5l-2.07,17a5.69,5.69,0,0,0,5,6.34L290,152.27a5.69,5.69,0,0,0,6.34-5l2.07-17a5.69,5.69,0,0,0-5-6.34l-3.32-.41a5.66,5.66,0,0,1-3.79-2.14l-2.06-2.62a5.71,5.71,0,0,0-3.79-2.15l-6.63-.8a5.63,5.63,0,0,0-4.2,1.17l-2.62,2a5.71,5.71,0,0,1-4.2,1.17Z" transform="translate(-38)"/><path class="cls-8" d="M274.05,141.73a7.12,7.12,0,1,1,6.46-11.46,7.14,7.14,0,0,1-1.21,10A7.18,7.18,0,0,1,274.05,141.73Zm-.35,2.82a10,10,0,1,0-6.64-3.75,10,10,0,0,0,6.64,3.75Zm-12.24-17.26a1.41,1.41,0,0,1-.53,1,1.47,1.47,0,0,1-1.05.29,1.43,1.43,0,0,1-1.24-1.59,1.45,1.45,0,0,1,.53-1,1.47,1.47,0,0,1,1.05-.29,1.42,1.42,0,0,1,.95.54,1.36,1.36,0,0,1,.29,1.05Z" transform="translate(-38)"/></g><text class="cls-10" transform="translate(127.5 130.66) rotate(-13.02)">A</text><text class="cls-11" transform="translate(143.49 121.74) rotate(-2.54)">B</text><text class="cls-12" transform="translate(157.51 128.69) rotate(6.4)">C</text><g class="cls-13"><text class="cls-14" transform="translate(127.5 130.66) rotate(-13.02)">A</text><text class="cls-15" transform="translate(143.49 121.74) rotate(-2.54)">B</text><text class="cls-16" transform="translate(157.51 128.69) rotate(6.4)">C</text></g><path class="cls-8" d="M220,172a36.13,36.13,0,0,1-10,6c-5.93,2.33-8.81,1.58-24,2-13.06.36-15.58,1.05-20-1a24.48,24.48,0,0,1-10-9q-.5-5.5-1-11h67Q221,165.5,220,172Z" transform="translate(-38)"/><circle class="cls-17" cx="149.75" cy="169.25" r="4.75"/><circle class="cls-18" cx="149.75" cy="169.25" r="3.75"/><rect class="cls-18" x="127" y="166" width="6" height="6"/><path class="cls-19" d="M205.63,166.94h.31a.63.63,0,0,0,.44-.19.59.59,0,0,0,.18-.44.36.36,0,0,1,.09-.22.32.32,0,0,1,.23-.09h1.87a.31.31,0,0,1,.31.31.65.65,0,0,0,.63.63H210a.6.6,0,0,1,.44.18.63.63,0,0,1,.19.44v2.82a.63.63,0,0,1-.19.44.65.65,0,0,1-.44.18h-4.37a.61.61,0,0,1-.63-.62v-2.82a.67.67,0,0,1,.18-.44.63.63,0,0,1,.45-.18" transform="translate(-38)"/><path class="cls-19" d="M207.58,169.72a.85.85,0,0,0,.42,0,1,1,0,0,0,.39-.18.9.9,0,0,0,.26-.32.87.87,0,0,0,.1-.42m-.7-.91a1.24,1.24,0,0,0-.43,0,.89.89,0,0,0-.38.18,1,1,0,0,0-.27.33.85.85,0,0,0-.09.41" transform="translate(-38)"/><path class="cls-19" d="M208.44,168.81h.62v.63m-1.87-.63h-.63v-.62" transform="translate(-38)"/><path class="cls-20" d="M124.47,270.24l-4.2-2.53a.4.4,0,0,0-.6.35l.07,4.9a.4.4,0,0,1-.74.2l-2.37-4.3a.4.4,0,0,0-.69,0l-2.39,4.28a.39.39,0,0,1-.74-.2l.09-4.9a.39.39,0,0,0-.6-.34l-4.21,2.51a.39.39,0,0,1-.54-.54l2.53-4.2a.4.4,0,0,0-.35-.6l-4.9.07a.4.4,0,0,1-.2-.74l4.3-2.38a.4.4,0,0,0,0-.69l-4.29-2.39a.4.4,0,0,1,.2-.74l4.91.1a.4.4,0,0,0,.34-.6l-2.51-4.21a.39.39,0,0,1,.54-.54l4.2,2.53a.4.4,0,0,0,.6-.35l-.07-4.9a.4.4,0,0,1,.74-.2l2.38,4.29a.39.39,0,0,0,.69,0l2.39-4.28a.4.4,0,0,1,.74.2l-.1,4.91a.4.4,0,0,0,.6.34l4.21-2.51a.39.39,0,0,1,.54.54l-2.53,4.2a.4.4,0,0,0,.35.6l4.9-.07a.4.4,0,0,1,.2.74l-4.29,2.37a.39.39,0,0,0,0,.69l4.29,2.39a.4.4,0,0,1-.2.74l-4.91-.09a.39.39,0,0,0-.34.6L125,269.7A.39.39,0,0,1,124.47,270.24Z" transform="translate(-38)"/><path class="cls-21" d="M140.62,307.85l-16.05,10-2-12,14-9Z" transform="translate(-38)"/><circle class="cls-22" cx="153.28" cy="266.22" r="66.72"/><ellipse class="cls-8" cx="148.12" cy="261.72" rx="7.34" ry="4.44" transform="translate(-153.85 405.8) rotate(-89.12)"/><path class="cls-22" d="M120.32,317.13c-8.26-4.7-1-29,0-32.28a96.85,96.85,0,0,1,3.79-10.24,4.33,4.33,0,0,1,2.84-3.15,4.63,4.63,0,0,1,2.84,0,3.51,3.51,0,0,1,1.89,1.58,3.28,3.28,0,0,1,0,3.15c-.67,2.28-1.31,4.64-1.89,7.09A92.66,92.66,0,0,0,127,299a67.57,67.57,0,0,0,0,10.24,10.26,10.26,0,0,1,0,3.94c-.27,1.31-.82,4.1-2.84,4.72C122.55,318.4,120.77,317.39,120.32,317.13Z" transform="translate(-38)"/><path class="cls-23" d="M125.56,304.51a6,6,0,0,1-4.5-5.56V266.29a3.69,3.69,0,0,1,4.5-3.73l12.56,2.14a5.67,5.67,0,0,1,4.5,5.42v33.73a3.51,3.51,0,0,1-4.5,3.6Z" transform="translate(-38)"/><path class="cls-8" d="M138.12,265.22a5,5,0,0,1,4,4.81v33.71a3.12,3.12,0,0,1-4,3.19L125.56,304a5.37,5.37,0,0,1-4-4.94V266.38a3.29,3.29,0,0,1,4-3.32l12.56,2.16m0-1-12.56-2.14a4.12,4.12,0,0,0-5,4.15v32.64a6.71,6.71,0,0,0,5,6.17L138.12,308a3.9,3.9,0,0,0,5-4V270.21a6.29,6.29,0,0,0-5-6Z" transform="translate(-38)"/><path class="cls-21" d="M220.39,306.24a52.71,52.71,0,0,1-25.17,10.56c-14.61,1.87-33.51-2.3-42.81-14.93a47.67,47.67,0,0,1-7.56-15.39c-1.66-6.9-1-13.15-3.38-13.78-1.61-.42-3.53,2.06-3.8,2.39-5.43,7-.68,21.11,5,29.76a47.05,47.05,0,0,0,15.55,14.59c24.56,14.18,55.64,1.15,60.4-.92" transform="translate(-38)"/><ellipse class="cls-24" cx="86.82" cy="267.17" rx="1.25" ry="1.46"/><ellipse class="cls-8" cx="86.78" cy="267.17" rx="0.49" ry="0.73"/><ellipse class="cls-24" cx="86.82" cy="271.19" rx="1.25" ry="1.46"/><ellipse class="cls-8" cx="86.78" cy="271.19" rx="0.49" ry="0.73"/><ellipse class="cls-25" cx="149.77" cy="350.98" rx="70.73" ry="6.52"/><ellipse class="cls-8" cx="186.79" cy="269.21" rx="7.34" ry="4.44" transform="translate(-123.26 451.84) rotate(-89.12)"/><g class="cls-26"><path class="cls-27" d="M146.39,199.59c0-1.4,46.91-11,80.08,15.29,4.46,3.53,16.79,13.56,22.56,31.07,10.52,31.93-10,60.7-13.95,65.94a83.63,83.63,0,0,1-34.88,26.77c4.55.47,39.15,3.49,61.27-21,24-26.55,18.31-68.89.69-91.43C229.1,184,146.35,201.45,146.39,199.59Z" transform="translate(-38)"/></g><path class="cls-18" d="M224.57,221.32c-2.1-.9-6.48-2.78-9.22-.81a5.08,5.08,0,0,0-1.86,2.56,5.64,5.64,0,0,0,0,3.18c1.17,3.38,6.93,3.28,11.17,4.58,3.79,1.17,8.85,4.13,13.73,12.31a23,23,0,0,0-2-10,24.72,24.72,0,0,0-5.77-7.76A21.2,21.2,0,0,0,224.57,221.32Z" transform="translate(-38)"/><circle class="cls-18" cx="202.13" cy="248.01" r="2.29"/><circle class="cls-18" cx="204.29" cy="253.76" r="2.29"/></g></g></svg>